<svg width="32" height="34" viewBox="0 0 32 34" fill="none" xmlns="http://www.w3.org/2000/svg">
<path fill-rule="evenodd" clip-rule="evenodd" d="M20.6188 1.23425L27.3812 5.12798C30.2393 6.77365 32 9.81496 32 13.1063V20.8937C32 24.185 30.2393 27.2263 27.3812 28.872L20.6188 32.7657C17.7607 34.4114 14.2393 34.4114 11.3812 32.7657L4.61881 28.872C1.76068 27.2263 0 24.185 0 20.8937V13.1063C0 9.81496 1.76068 6.77365 4.61881 5.12798L11.3812 1.23425C14.2393 -0.411417 17.7607 -0.411417 20.6188 1.23425Z" fill="#4D4E59" fill-opacity="0.5"/>
<g clip-path="url(#clip0_58_7)">
<path d="M8.79203 21.1679C8.19203 21.1679 7.65603 21.0399 7.18403 20.7839C6.71203 20.5199 6.34003 20.1359 6.06803 19.6319C5.79603 19.1279 5.66003 18.5119 5.66003 17.7839V15.8159C5.66003 14.7199 5.96003 13.8839 6.56003 13.3079C7.16003 12.7239 7.97203 12.4319 8.99603 12.4319C10.004 12.4319 10.78 12.7079 11.324 13.2599C11.868 13.8039 12.14 14.5359 12.14 15.4559V15.5159H10.856V15.4199C10.856 15.0759 10.788 14.7679 10.652 14.4959C10.516 14.2159 10.312 13.9959 10.04 13.8359C9.76803 13.6759 9.42003 13.5959 8.99603 13.5959C8.35603 13.5959 7.85603 13.7919 7.49603 14.1839C7.13603 14.5679 6.95603 15.1039 6.95603 15.7919V17.8079C6.95603 18.4879 7.13603 19.0279 7.49603 19.4279C7.85603 19.8199 8.36003 20.0159 9.00803 20.0159C9.64803 20.0159 10.116 19.8399 10.412 19.4879C10.708 19.1359 10.856 18.6799 10.856 18.1199V17.9639H8.60003V16.8479H12.14V20.9999H10.94V20.1479H10.748C10.676 20.2999 10.568 20.4559 10.424 20.6159C10.288 20.7759 10.088 20.9079 9.82403 21.0119C9.56803 21.1159 9.22403 21.1679 8.79203 21.1679ZM13.8096 20.9999V12.5999H19.1016V13.7759H15.1056V16.1879H18.7656V17.3639H15.1056V19.8239H19.1616V20.9999H13.8096ZM22.5167 20.9999V13.7759H19.9367V12.5999H26.3927V13.7759H23.8127V20.9999H22.5167Z" fill="#00FF73"/>
</g>
<defs>
<clipPath id="clip0_58_7">
<rect width="22" height="10" fill="white" transform="translate(5 12)"/>
</clipPath>
</defs>
</svg>
