<svg width="121.000092" height="44.000000" viewBox="0 0 121 44" fill="none" xmlns="http://www.w3.org/2000/svg" xmlns:xlink="http://www.w3.org/1999/xlink">
	<desc>
			Created with Pixso.
	</desc>
	<defs/>
	<path id="Vector" d="M4.83 3.86L9.15e-5 3.86L9.15e-5 13.51L4.83 13.51L4.83 3.86Z" fill="#16E4DC" fill-opacity="1.000000" fill-rule="evenodd"/>
	<path id="Vector" d="M9.15e-5 4C9.15e-5 1.79 1.57 0 3.52 0L5 0L5 8L3.52 8C1.57 8 9.15e-5 6.2 9.15e-5 4Z" fill="#186A67" fill-opacity="1.000000" fill-rule="nonzero"/>
	<path id="Vector" d="M115.23 13.27C122.92 20.31 122.92 31.7 115.23 38.73C111.55 42.1 106.54 44 101.33 44L4.1 44C1.83 44 9.15e-5 42.32 9.15e-5 40.24L9.15e-5 8L101.33 8C106.55 8 111.55 9.89 115.23 13.27Z" fill="#13141D" fill-opacity="1.000000" fill-rule="nonzero"/>
	<path id="Vector" d="M101.33 8C106.55 8 111.55 9.89 115.23 13.27C122.92 20.31 122.92 31.7 115.23 38.73C111.55 42.1 106.54 44 101.33 44L4.1 44C1.83 44 9.15e-5 42.32 9.15e-5 40.24L9.15e-5 8L101.33 8ZM2 10L101.33 10Q105.7 10 109.3 11.67Q111.77 12.81 113.88 14.75Q116.86 17.48 118.11 20.85Q119 23.26 119 26Q119 28.75 118.1 31.16Q116.86 34.53 113.88 37.25Q111.77 39.19 109.29 40.33Q105.69 42 101.33 42L4.1 42Q2.86 42 2.35 41.39Q2 40.96 2 40.24L2 10Z" fill="#16E4DC" fill-opacity="1.000000" fill-rule="evenodd"/>
	<path id="text" d="M74.04 23.42L72.35 23.42C72.23 22.34 71.28 21.72 69.94 21.72C68.51 21.72 67.61 22.45 67.61 23.44C67.6 24.55 68.81 24.98 69.72 25.21L70.86 25.51C72.34 25.87 74.2 26.68 74.2 28.78C74.2 30.75 72.63 32.19 69.9 32.19C67.29 32.19 65.66 30.89 65.54 28.78L67.31 28.78C67.41 30.05 68.54 30.65 69.89 30.65C71.38 30.65 72.47 29.9 72.47 28.76C72.47 27.73 71.51 27.32 70.26 26.99L68.89 26.62C67.02 26.11 65.86 25.16 65.86 23.54C65.86 21.53 67.65 20.2 69.98 20.2C72.35 20.2 73.99 21.55 74.04 23.42ZM16.27 20.36L18.03 20.36L18.03 32L16.27 32L16.27 20.36ZM20.58 32L20.58 20.36L22.72 20.36L26.42 29.41L26.56 29.41L30.26 20.36L32.39 20.36L32.39 32L30.72 32L30.72 23.57L30.62 23.57L27.18 31.98L25.8 31.98L22.37 23.57L22.26 23.57L22.26 32L20.58 32ZM36.71 32L34.95 32L34.95 20.36L39.1 20.36C41.8 20.36 43.12 21.98 43.12 24.12C43.12 26.27 41.79 27.91 39.09 27.91L36.71 27.91L36.71 32ZM52.66 27.87L52.66 20.36L54.42 20.36L54.42 28.01C54.42 30.46 52.59 32.19 49.8 32.19C47.01 32.19 45.18 30.46 45.18 28.01L45.18 20.36L46.93 20.36L46.93 27.87C46.93 29.45 48.03 30.58 49.8 30.58C51.57 30.58 52.66 29.45 52.66 27.87ZM64.01 32L56.98 32L56.98 20.36L58.73 20.36L58.73 30.48L64.01 30.48L64.01 32ZM83.66 32L76.3 32L76.3 20.36L83.6 20.36L83.6 21.87L78.06 21.87L78.06 25.42L83.21 25.42L83.21 26.92L78.06 26.92L78.06 30.48L83.66 30.48L83.66 32ZM36.71 21.87L36.71 26.42L38.93 26.42C40.65 26.42 41.36 25.44 41.36 24.12C41.36 22.81 40.65 21.87 38.91 21.87L36.71 21.87Z" fill="#FDFCFC" fill-opacity="1.000000" fill-rule="evenodd"/>
	<path id="Polygon Copy 5" d="M98.53 15.79L102.96 18.31C104.84 19.38 106 21.35 106 23.48L106 28.51C106 30.64 104.84 32.61 102.96 33.68L98.53 36.2C96.65 37.26 94.34 37.26 92.46 36.2L88.03 33.68C86.15 32.61 85 30.64 85 28.51L85 23.48C85 21.35 86.15 19.38 88.03 18.31L92.46 15.79C94.34 14.73 96.65 14.73 98.53 15.79Z" fill="#4D4E59" fill-opacity="0.500000" fill-rule="evenodd"/>
	<path id="Vector" d="M95.21 29.43C94.64 29.43 94.19 29.9 94.19 30.46C94.19 31.01 94.63 31.49 95.21 31.49C95.79 31.49 96.25 31.01 96.25 30.46C96.25 29.9 95.78 29.43 95.21 29.43Z" fill="#FDFCFC" fill-opacity="1.000000" fill-rule="nonzero"/>
	<path id="Vector" d="M95.39 21.6C93.57 21.6 92.73 22.67 92.73 23.4C92.73 23.92 93.18 24.16 93.54 24.16C94.27 24.16 93.97 23.13 95.35 23.13C96.02 23.13 96.56 23.42 96.56 24.04C96.56 24.77 95.81 25.18 95.36 25.56C94.97 25.89 94.46 26.44 94.46 27.6C94.46 28.3 94.65 28.5 95.2 28.5C95.86 28.5 95.99 28.2 95.99 27.95C95.99 27.25 96.01 26.85 96.75 26.27C97.11 25.99 98.26 25.07 98.26 23.81C98.26 22.55 97.11 21.6 95.39 21.6Z" fill="#FDFCFC" fill-opacity="1.000000" fill-rule="nonzero"/>
</svg>
