<svg width="27.999969" height="27.999969" viewBox="0 0 28 28" fill="none" xmlns="http://www.w3.org/2000/svg" xmlns:xlink="http://www.w3.org/1999/xlink">
	<desc>
			Created with Pixso.
	</desc>
	<defs>
		<filter id="filter_3_726_dd" x="0.000000" y="0.000000" width="27.999969" height="27.999969" filterUnits="userSpaceOnUse" color-interpolation-filters="sRGB">
			<feFlood flood-opacity="0" result="BackgroundImageFix"/>
			<feColorMatrix in="SourceAlpha" type="matrix" values="0 0 0 0 0 0 0 0 0 0 0 0 0 0 0 0 0 0 127 0" result="hardAlpha"/>
			<feOffset dx="0" dy="2"/>
			<feGaussianBlur stdDeviation="2.66667"/>
			<feComposite in2="hardAlpha" operator="out" k2="-1" k3="1"/>
			<feColorMatrix type="matrix" values="0 0 0 0 0.035294 0 0 0 0 0.40392 0 0 0 0 0.2 0 0 0 1 0"/>
			<feBlend mode="normal" in2="BackgroundImageFix" result="effect_dropShadow_1"/>
			<feBlend mode="normal" in="SourceGraphic" in2="effect_dropShadow_1" result="shape"/>
		</filter>
	</defs>
	<g filter="url(#filter_3_726_dd)">
		<path id="Vector" d="M19.18 10.9L15.09 10.9L15.09 6.81C15.09 6.36 14.72 6 14.27 6L13.72 6C13.27 6 12.9 6.36 12.9 6.81L12.9 10.9L8.81 10.9C8.36 10.9 8 11.27 8 11.72L8 12.27C8 12.72 8.36 13.09 8.81 13.09L12.9 13.09L12.9 17.18C12.9 17.63 13.27 18 13.72 18L14.27 18C14.72 18 15.09 17.63 15.09 17.18L15.09 13.09L19.18 13.09C19.63 13.09 20 12.72 20 12.27L20 11.72C20 11.27 19.63 10.9 19.18 10.9Z" fill="#FDFCFC" fill-opacity="1.000000" fill-rule="nonzero"/>
	</g>
</svg>
