<svg width="21.000000" height="22.000000" viewBox="0 0 21 22" fill="none" xmlns="http://www.w3.org/2000/svg" xmlns:xlink="http://www.w3.org/1999/xlink">
	<desc>
			Created with Pixso.
	</desc>
	<defs/>
	<path id="Polygon Copy 4" d="M13.53 0.79L17.96 3.31C19.84 4.38 21 6.35 21 8.48L21 13.51C21 15.64 19.84 17.61 17.96 18.68L13.53 21.2C11.65 22.26 9.34 22.26 7.46 21.2L3.03 18.68C1.15 17.61 0 15.64 0 13.51L0 8.48C0 6.35 1.15 4.38 3.03 3.31L7.46 0.79C9.34 -0.27 11.65 -0.27 13.53 0.79Z" fill="#4D4E59" fill-opacity="0.500000" fill-rule="evenodd"/>
	<path id="Vector" d="M10.21 14.43C9.64 14.43 9.19 14.9 9.19 15.46C9.19 16.01 9.63 16.49 10.21 16.49C10.79 16.49 11.25 16.01 11.25 15.46C11.25 14.9 10.78 14.43 10.21 14.43Z" fill="#FDFCFC" fill-opacity="1.000000" fill-rule="nonzero"/>
	<path id="Vector" d="M10.39 6.6C8.57 6.6 7.73 7.67 7.73 8.4C7.73 8.92 8.18 9.16 8.54 9.16C9.27 9.16 8.97 8.13 10.35 8.13C11.02 8.13 11.56 8.42 11.56 9.04C11.56 9.77 10.81 10.18 10.36 10.56C9.97 10.89 9.46 11.44 9.46 12.6C9.46 13.3 9.65 13.5 10.2 13.5C10.86 13.5 10.99 13.2 10.99 12.95C10.99 12.25 11.01 11.85 11.75 11.27C12.11 10.99 13.26 10.07 13.26 8.81C13.26 7.55 12.11 6.6 10.39 6.6Z" fill="#FDFCFC" fill-opacity="1.000000" fill-rule="nonzero"/>
</svg>
